<?xml version="1.0" encoding="UTF-8"?><svg version="1.1" viewBox="0 0 24 24" xmlns="http://www.w3.org/2000/svg" xmlns:xlink="http://www.w3.org/1999/xlink"><path d="M.25 12.435l1.96233e-08 1.47108e-05c.00166075 1.24196 1.00806 2.24834 2.25001 2.24999h6.72599l-9.74554e-09 1.37526e-11c.138071-.000194836.250158.111576.250353.249647 2.67613e-05.0189645-.00210445.0378704-.00635252.056353l-1.02938e-07 4.08494e-07c-.390194 1.54842-.631293 3.13064-.72 4.725l-1.23761e-07 2.38687e-06c-.0432553.834234.22673 1.65453.757002 2.3l-1.95459e-07-2.22846e-07c.44188.503794 1.07789.794877 1.748.8l3.26533e-08 1.63611e-09c1.04803.0525122 1.94019-.754511 1.9927-1.80254 .00129285-.0258024.0020593-.0516286.00229888-.0774623l1.00991e-09 1.01403e-07c-.0381264-3.82816 2.9289-7.01541 6.75-7.251h3 -3.27835e-08c.414214 1.81058e-08.75-.335786.75-.75v-9 0c0-.414214-.335786-.75-.75-.75 -4.532 0-6.009-.635-7.312-1.193l2.69352e-08 1.30875e-08c-1.14791-.557755-2.41205-.834373-3.688-.807h-6.5l-3.10121e-08 1.56586e-11c-1.24319.000627682-2.25049 1.00894-2.24986 2.25214 .000173642.343916.0791489.68322.230863.991864l-9.29588e-08 4.72502e-08c-1.0979.558053-1.54349 1.89482-1 3l-9.29588e-08 4.72502e-08c-1.0979.558053-1.54349 1.89482-1 3l-2.21624e-07 1.12654e-07c-.755065.383809-1.23076 1.15899-1.231 2.006Z" fill="currentColor"></path></svg>
