<?xml version="1.0" encoding="UTF-8"?><svg version="1.1" viewBox="0 0 24 24" xmlns="http://www.w3.org/2000/svg" xmlns:xlink="http://www.w3.org/1999/xlink"><path d="M23.75 11.565l-1.96566e-08-1.47357e-05c-.00166076-1.24196-1.00806-2.24834-2.25001-2.24999h-6.72599l-1.21101e-08 1.70886e-11c-.138071.000194823-.250158-.111576-.250353-.249647 -2.67596e-05-.0189645.00210446-.0378704.00635253-.056353l2.06196e-07-8.18257e-07c.390194-1.54842.631293-3.13064.72-4.725l1.37676e-07-2.65523e-06c.0432553-.834234-.22673-1.65453-.757002-2.3l6.0047e-08 6.84605e-08c-.44188-.503794-1.07789-.794877-1.748-.8l2.76654e-08 1.3862e-09c-1.04803-.0525122-1.94019.754511-1.9927 1.80254 -.00129285.0258024-.00205931.0516286-.00229888.0774623l1.13107e-08 1.13567e-06c.0381262 3.82816-2.92891 7.01541-6.75 7.251h-3 -3.27835e-08c-.414214 1.81059e-08-.75.335786-.75.75 0 0 0 0 0 0v9l1.06581e-14-1.13247e-07c-6.25445e-08.414214.335786.75.75.75 4.532 0 6.009.635 7.312 1.193l-9.29679e-07-4.5172e-07c1.14791.557755 2.41205.834373 3.688.807h6.5l1.02248e-07-5.16245e-11c1.24319-.000627721 2.25049-1.00894 2.24986-2.25214 -.000173653-.343916-.079149-.68322-.230863-.991864l1.56743e-07-7.96714e-08c1.0979-.558053 1.54349-1.89482 1-3l1.56743e-07-7.96714e-08c1.0979-.558053 1.54349-1.89482 1-3l1.95785e-07-9.95199e-08c.755066-.383808 1.23076-1.15899 1.231-2.006Z" fill="currentColor"></path></svg>
