<?xml version="1.0" encoding="UTF-8"?><svg version="1.1" viewBox="0 0 24 24" xmlns="http://www.w3.org/2000/svg" xmlns:xlink="http://www.w3.org/1999/xlink"><path d="M22.5 9.5h-1.862l2.88167e-07 9.95966e-07c-.185115-.639799-.441031-1.25695-.762999-1.84l1.317-1.316 -1.26892e-08 1.2681e-08c.585974-.585599.586278-1.53535.000679791-2.12132 -.000226516-.000226661-.000453104-.00045325-.000679765-.000679765l-1.415-1.413 6.27857e-08 6.27668e-08c-.58575-.585573-1.53525-.585573-2.121-1.25534e-07l-1.318 1.317 3.94605e-07 2.18368e-07c-.582238-.322201-1.19875-.578132-1.838-.763v-1.863l3.55271e-15-6.39488e-14c0-.828427-.671573-1.5-1.5-1.5 -1.4453e-07 0-2.88714e-07 2.13163e-14-4.33243e-07 6.39488e-14h-2 -6.55671e-08c-.828427 3.62117e-08-1.5.671573-1.5 1.5 0 0 0 0 0 0v1.863l4.00601e-09-1.1609e-09c-.639417.185295-1.25622.441205-1.839.763l-1.318-1.317 6.27857e-08 6.27668e-08c-.58575-.585573-1.53525-.585573-2.121-1.25534e-07l-1.415 1.414 -1.68259e-08 1.68151e-08c-.585974.585599-.586278 1.53535-.000679732 2.12132 .000226516.000226661.000453104.00045325.000679765.000679765l1.318 1.317 -2.7126e-07 4.89774e-07c-.322414.582135-.578355 1.19867-.763 1.838h-1.862l-6.55672e-08 1.77636e-15c-.828427 3.62117e-08-1.5.671573-1.5 1.5v2l1.42109e-14 2.26494e-07c1.25089e-07.828427.671573 1.5 1.5 1.5h1.862l-4.4479e-07-1.54148e-06c.184575.639669.440516 1.25655.762999 1.839l-1.319 1.319 7.96216e-08-7.96456e-08c-.585573.58575-.585573 1.53525-1.59243e-07 2.121l1.414 1.414 -1.03047e-07-9.73513e-08c.595478.562563 1.52652.562563 2.122 1.94702e-07l1.318-1.317 -3.67452e-07-2.03013e-07c.583086.322149 1.20022.578393 1.84.764v1.86l1.77636e-14-2.26494e-07c-1.25089e-07.828427.671573 1.5 1.5 1.5 1.33828e-07 2.13163e-14 2.69352e-07 2.4869e-14 4.0318e-07 7.10543e-15h2 -6.55671e-08c.828427 3.62117e-08 1.5-.671573 1.5-1.5v-1.86l2.8357e-07-8.21597e-08c.639427-.185263 1.25623-.441174 1.839-.762998l1.318 1.317 -9.22958e-08-9.22679e-08c.58575.585573 1.53525.585573 2.121 1.84536e-07l1.414-1.414 -4.5912e-08 4.59259e-08c.585573-.58575.585573-1.53525 9.1824e-08-2.121l-1.317-1.317 2.95255e-08-5.33946e-08c.322315-.582882.578248-1.20007.762999-1.84h1.862l2.20209e-08 1.95399e-14c.828427 7.27505e-07 1.5-.671572 1.5-1.5 5.8715e-10-.0006686-4.45851e-07-.0013372-1.33931e-06-.0020058v-2 0c0-.828427-.671573-1.5-1.5-1.5Zm-10.5 7.5l-2.18557e-07-7.10543e-15c-2.76142-1.20706e-07-5-2.23858-5-5 1.20706e-07-2.76142 2.23858-5 5-5 2.76142 1.20706e-07 5 2.23858 5 5l1.10743e-08-9.25199e-06c-.00330114 2.76005-2.23994 4.9967-4.99999 5.00001Z" fill="currentColor"></path></svg>
