<?xml version="1.0" encoding="UTF-8"?><svg version="1.1" viewBox="0 0 24 24" xmlns="http://www.w3.org/2000/svg" xmlns:xlink="http://www.w3.org/1999/xlink"><g fill="currentColor"><path d="M24 3v0c0-1.65685-1.34315-3-3-3h-18l-1.31134e-07 3.55271e-15c-1.65685 7.24234e-08-3 1.34315-3 3 0 0 0 3.55271e-15 0 3.55271e-15v18l3.19744e-14 4.52987e-07c2.50178e-07 1.65685 1.34315 3 3 3h18 -1.31134e-07c1.65685 7.24234e-08 3-1.34315 3-3Zm-14.346-1l3.24426e-08-5.88595e-08c.257533-.467233.845072-.637228 1.3123-.379695 .159905.0881379.291557.21979.379695.379695l-6.28436e-09-9.75868e-09c.0962064.149394.149482.322366.154.5l-1.69308e-08 6.65615e-07c-.00451842.177634-.0577938.350606-.154.5l8.12106e-09-1.47337e-08c-.257533.467233-.845072.637228-1.3123.379694 -.159905-.0881379-.291557-.21979-.379695-.379695l-4.76459e-08-7.3987e-08c-.0962064-.149394-.149482-.322366-.154-.5l1.15748e-08-4.55049e-07c.0045184-.177634.0577938-.350606.154-.5Zm-3.5 0l3.24426e-08-5.88595e-08c.257533-.467233.845072-.637228 1.3123-.379695 .159905.0881379.291557.21979.379695.379695l-7.23141e-09-1.12293e-08c.0962064.149394.149482.322366.154.5l-1.69308e-08 6.65615e-07c-.00451842.177634-.0577938.350606-.154.5l7.66139e-09-1.38998e-08c-.257533.467233-.845072.637228-1.3123.379694 -.159905-.0881379-.291557-.21979-.379695-.379695l-4.71894e-08-7.32781e-08c-.0962064-.149394-.149482-.322366-.154-.5l1.1598e-08-4.55961e-07c.0045184-.177634.0577938-.350606.154-.5Zm-3.562.092l-3.29667e-08 7.37723e-08c.160195-.358482.515357-.590042.908-.592l-1.62245e-08-1.87104e-10c.350938.00404708.673215.194518.846.5l-6.28436e-09-9.75867e-09c.0962064.149394.149482.322366.154.5l-1.69308e-08 6.65615e-07c-.00451842.177634-.0577938.350606-.154.5l-7.36571e-09 1.33633e-08c-.257533.467233-.845072.637228-1.3123.379694 -.159905-.0881379-.291557-.21979-.379695-.379695l-3.22664e-08-5.01048e-08c-.0962064-.149394-.149482-.322366-.154-.5l-7.7744e-10 1.19338e-07c.000918808-.141039.0323015-.280215.092-.408Zm.408 19.908h-4.37114e-08c-.552285-2.41411e-08-1-.447715-1-1 0 0 0-3.55271e-15 0-3.55271e-15v-15.75l3.55271e-15 3.7749e-08c-2.08482e-08-.138071.111929-.25.25-.25h6 -1.09278e-08c.138071-6.03529e-09.25.111929.25.25v16.5 0c0 .138071-.111929.25-.25.25Zm19-1v0c0 .552285-.447715 1-1 1h-10.75 -1.09278e-08c-.138071-6.03528e-09-.25-.111929-.25-.25 0 0 0 0 0 0v-16.5l3.55271e-15 3.77489e-08c-2.08482e-08-.138071.111929-.25.25-.25h11.5 -1.09278e-08c.138071-6.03528e-09.25.111929.25.25Z"></path><rect width="7" height="5.5" x="12.5" y="7" rx=".55228" ry="0"></rect><path d="M3.5 7.25l8.43769e-15 1.13247e-07c6.25445e-08.414214.335787.75.75.75h2l-3.27835e-08-8.88178e-16c.414214 1.81059e-08.75-.335786.75-.75 1.81059e-08-.414214-.335786-.75-.75-.75h-2l8.88178e-16 8.88178e-16c-.414214-8.06504e-08-.75.335786-.75.75 -9.76996e-15 4.90373e-08-1.42109e-14 9.69931e-08-1.42109e-14 1.4603e-07Z"></path><path d="M5.5 12h.75 -3.27835e-08c.414214 1.81058e-08.75-.335786.75-.75 1.81059e-08-.414214-.335786-.75-.75-.75h-.75 -3.27835e-08c-.414214 1.81059e-08-.75.335786-.75.75 1.81059e-08.414214.335786.75.75.75Z"></path><path d="M4.25 16h2 -3.27835e-08c.414214 1.81059e-08.75-.335786.75-.75 1.81059e-08-.414214-.335786-.75-.75-.75h-2 -3.27835e-08c-.414214 1.81059e-08-.75.335786-.75.75 1.81059e-08.414214.335786.75.75.75Z"></path><path d="M5.5 20h.75 -3.27835e-08c.414214 1.81059e-08.75-.335786.75-.75 1.81059e-08-.414214-.335786-.75-.75-.75h-.75 -3.27835e-08c-.414214 1.81059e-08-.75.335786-.75.75 1.81059e-08.414214.335786.75.75.75Z"></path><rect width="7" height="5.5" x="12.5" y="14.5" rx=".55228" ry="0"></rect></g></svg>
